<?xml version="1.0" encoding="UTF-8"?>
<svg xmlns="http://www.w3.org/2000/svg" xmlns:xlink="http://www.w3.org/1999/xlink" viewBox="0 0 48 48" width="48px" height="48px">
<g id="surface120967269">
<path style=" stroke:none;fill-rule:nonzero;fill:rgb(99.215686%,31.764707%,41.960785%);fill-opacity:1;" d="M 24 4 C 12.953125 4 4 12.953125 4 24 C 4 35.046875 12.953125 44 24 44 C 35.046875 44 44 35.046875 44 24 C 44 12.953125 35.046875 4 24 4 Z M 24 4 "/>
<path style=" stroke:none;fill-rule:nonzero;fill:rgb(100%,100%,100%);fill-opacity:1;" d="M 24 32 C 22.347656 32 21 30.652344 21 29 L 21 19 C 21 18.449219 20.550781 18 20 18 C 19.449219 18 19 18.449219 19 19 L 19 25 C 19 26.652344 17.652344 28 16 28 L 11 28 L 11 26 L 16 26 C 16.550781 26 17 25.550781 17 25 L 17 19 C 17 17.347656 18.347656 16 20 16 C 21.652344 16 23 17.347656 23 19 L 23 29 C 23 29.550781 23.449219 30 24 30 C 24.550781 30 25 29.550781 25 29 L 25 23 C 25 21.347656 26.347656 20 28 20 C 29.652344 20 31 21.347656 31 23 L 31 25 C 31 25.550781 31.449219 26 32 26 L 37 26 L 37 28 L 32 28 C 30.347656 28 29 26.652344 29 25 L 29 23 C 29 22.449219 28.550781 22 28 22 C 27.449219 22 27 22.449219 27 23 L 27 29 C 27 30.652344 25.652344 32 24 32 Z M 24 32 "/>
</g>
</svg>
